<mxfile host="65bd71144e">
    <diagram id="3XfTOB8jtPbpJQXoPE52" name="Page-1">
        <mxGraphModel dx="1395" dy="571" grid="1" gridSize="10" guides="1" tooltips="1" connect="1" arrows="1" fold="1" page="1" pageScale="1" pageWidth="850" pageHeight="1100" math="0" shadow="0">
            <root>
                <mxCell id="0"/>
                <mxCell id="1" parent="0"/>
                <mxCell id="2" value="Taskboard" style="shape=partialRectangle;whiteSpace=wrap;html=1;left=0;right=0;" parent="1" vertex="1">
                    <mxGeometry x="135" y="600" width="120" height="60" as="geometry"/>
                </mxCell>
                <mxCell id="3" value="Tasks" style="shape=partialRectangle;whiteSpace=wrap;html=1;left=0;right=0;" parent="1" vertex="1">
                    <mxGeometry x="690" y="510" width="120" height="60" as="geometry"/>
                </mxCell>
                <mxCell id="4" value="Labels" style="shape=partialRectangle;whiteSpace=wrap;html=1;left=0;right=0;" parent="1" vertex="1">
                    <mxGeometry x="435" y="670" width="120" height="60" as="geometry"/>
                </mxCell>
                <mxCell id="5" value="Users(Normal user and Supervisor" style="shape=ext;double=1;rounded=0;whiteSpace=wrap;html=1;fillColor=#1ba1e2;fontColor=#ffffff;strokeColor=#006EAF;" parent="1" vertex="1">
                    <mxGeometry x="-30" y="355" width="120" height="80" as="geometry"/>
                </mxCell>
                <mxCell id="8" value="Task maangement" style="ellipse;whiteSpace=wrap;html=1;aspect=fixed;fillColor=#d80073;fontColor=#ffffff;strokeColor=#A50040;" parent="1" vertex="1">
                    <mxGeometry x="440" y="180" width="80" height="80" as="geometry"/>
                </mxCell>
                <mxCell id="9" value="Label management" style="ellipse;whiteSpace=wrap;html=1;aspect=fixed;fillColor=#d80073;fontColor=#ffffff;strokeColor=#A50040;" parent="1" vertex="1">
                    <mxGeometry x="435" y="490" width="90" height="90" as="geometry"/>
                </mxCell>
                <mxCell id="10" value="User Authentication" style="ellipse;whiteSpace=wrap;html=1;aspect=fixed;fillColor=#d80073;fontColor=#ffffff;strokeColor=#A50040;" parent="1" vertex="1">
                    <mxGeometry x="435" y="10" width="80" height="80" as="geometry"/>
                </mxCell>
                <mxCell id="11" value="Taskboard management" style="ellipse;whiteSpace=wrap;html=1;aspect=fixed;fillColor=#d80073;fontColor=#ffffff;strokeColor=#A50040;" parent="1" vertex="1">
                    <mxGeometry x="440" y="340" width="80" height="80" as="geometry"/>
                </mxCell>
                <mxCell id="14" value="" style="endArrow=classic;html=1;exitX=0.69;exitY=-0.02;exitDx=0;exitDy=0;exitPerimeter=0;entryX=0.03;entryY=0.675;entryDx=0;entryDy=0;entryPerimeter=0;" parent="1" source="5" target="10" edge="1">
                    <mxGeometry width="50" height="50" relative="1" as="geometry">
                        <mxPoint x="390" y="330" as="sourcePoint"/>
                        <mxPoint x="440" y="280" as="targetPoint"/>
                    </mxGeometry>
                </mxCell>
                <mxCell id="15" value="Login credentials" style="text;html=1;strokeColor=none;fillColor=none;align=center;verticalAlign=middle;whiteSpace=wrap;rounded=0;" parent="1" vertex="1">
                    <mxGeometry x="50" y="180" width="150" height="40" as="geometry"/>
                </mxCell>
                <mxCell id="16" value="" style="endArrow=classic;html=1;entryX=1;entryY=0.5;entryDx=0;entryDy=0;" parent="1" target="5" edge="1">
                    <mxGeometry width="50" height="50" relative="1" as="geometry">
                        <mxPoint x="460" y="90" as="sourcePoint"/>
                        <mxPoint x="440" y="280" as="targetPoint"/>
                    </mxGeometry>
                </mxCell>
                <mxCell id="17" value="Authentication status" style="text;html=1;strokeColor=none;fillColor=none;align=center;verticalAlign=middle;whiteSpace=wrap;rounded=0;" parent="1" vertex="1">
                    <mxGeometry x="40" y="295" width="150" height="60" as="geometry"/>
                </mxCell>
                <mxCell id="18" value="" style="endArrow=classic;html=1;entryX=0.5;entryY=0;entryDx=0;entryDy=0;" parent="1" source="10" edge="1" target="8">
                    <mxGeometry width="50" height="50" relative="1" as="geometry">
                        <mxPoint x="390" y="260" as="sourcePoint"/>
                        <mxPoint x="470" y="170" as="targetPoint"/>
                    </mxGeometry>
                </mxCell>
                <mxCell id="19" value="User credentials" style="text;html=1;strokeColor=none;fillColor=none;align=center;verticalAlign=middle;whiteSpace=wrap;rounded=0;" parent="1" vertex="1">
                    <mxGeometry x="450" y="110" width="150" height="60" as="geometry"/>
                </mxCell>
                <mxCell id="20" value="" style="endArrow=classic;html=1;entryX=1;entryY=0.75;entryDx=0;entryDy=0;" parent="1" source="8" target="5" edge="1">
                    <mxGeometry width="50" height="50" relative="1" as="geometry">
                        <mxPoint x="390" y="260" as="sourcePoint"/>
                        <mxPoint x="440" y="210" as="targetPoint"/>
                        <Array as="points">
                            <mxPoint x="340" y="260"/>
                        </Array>
                    </mxGeometry>
                </mxCell>
                <mxCell id="21" value="Tasks details, updates" style="text;html=1;strokeColor=none;fillColor=none;align=center;verticalAlign=middle;whiteSpace=wrap;rounded=0;" parent="1" vertex="1">
                    <mxGeometry x="230" y="310" width="150" height="60" as="geometry"/>
                </mxCell>
                <mxCell id="22" value="" style="endArrow=classic;html=1;exitX=0.5;exitY=1;exitDx=0;exitDy=0;" parent="1" source="8" target="11" edge="1">
                    <mxGeometry width="50" height="50" relative="1" as="geometry">
                        <mxPoint x="550" y="280" as="sourcePoint"/>
                        <mxPoint x="546.6652217884873" y="360.03467707630625" as="targetPoint"/>
                    </mxGeometry>
                </mxCell>
                <mxCell id="24" value="Task data" style="text;html=1;strokeColor=none;fillColor=none;align=center;verticalAlign=middle;whiteSpace=wrap;rounded=0;" parent="1" vertex="1">
                    <mxGeometry x="435" y="280" width="150" height="60" as="geometry"/>
                </mxCell>
                <mxCell id="25" value="" style="endArrow=classic;html=1;exitX=0;exitY=0.5;exitDx=0;exitDy=0;entryX=0.61;entryY=0.027;entryDx=0;entryDy=0;entryPerimeter=0;" parent="1" source="11" target="2" edge="1">
                    <mxGeometry width="50" height="50" relative="1" as="geometry">
                        <mxPoint x="390" y="260" as="sourcePoint"/>
                        <mxPoint x="360" y="490.79998779296875" as="targetPoint"/>
                    </mxGeometry>
                </mxCell>
                <mxCell id="26" value="Task updates" style="text;html=1;strokeColor=none;fillColor=none;align=center;verticalAlign=middle;whiteSpace=wrap;rounded=0;" parent="1" vertex="1">
                    <mxGeometry x="120" y="480" width="150" height="60" as="geometry"/>
                </mxCell>
                <mxCell id="30" value="" style="endArrow=classic;html=1;exitX=0.872;exitY=0.013;exitDx=0;exitDy=0;exitPerimeter=0;" parent="1" source="2" target="11" edge="1">
                    <mxGeometry width="50" height="50" relative="1" as="geometry">
                        <mxPoint x="260" y="580" as="sourcePoint"/>
                        <mxPoint x="310" y="530" as="targetPoint"/>
                    </mxGeometry>
                </mxCell>
                <mxCell id="31" value="Task information" style="text;html=1;strokeColor=none;fillColor=none;align=center;verticalAlign=middle;whiteSpace=wrap;rounded=0;" parent="1" vertex="1">
                    <mxGeometry x="270" y="520" width="150" height="60" as="geometry"/>
                </mxCell>
                <mxCell id="32" value="" style="endArrow=classic;html=1;exitX=0.5;exitY=1;exitDx=0;exitDy=0;" parent="1" source="11" target="9" edge="1">
                    <mxGeometry width="50" height="50" relative="1" as="geometry">
                        <mxPoint x="390" y="470" as="sourcePoint"/>
                        <mxPoint x="440" y="420" as="targetPoint"/>
                    </mxGeometry>
                </mxCell>
                <mxCell id="33" value="Task label" style="text;html=1;strokeColor=none;fillColor=none;align=center;verticalAlign=middle;whiteSpace=wrap;rounded=0;" parent="1" vertex="1">
                    <mxGeometry x="495" y="440" width="60" height="30" as="geometry"/>
                </mxCell>
                <mxCell id="34" value="" style="endArrow=classic;html=1;entryX=0.62;entryY=0.991;entryDx=0;entryDy=0;entryPerimeter=0;exitX=0.5;exitY=0;exitDx=0;exitDy=0;" parent="1" target="9" edge="1" source="4">
                    <mxGeometry width="50" height="50" relative="1" as="geometry">
                        <mxPoint x="491" y="650" as="sourcePoint"/>
                        <mxPoint x="390" y="380" as="targetPoint"/>
                    </mxGeometry>
                </mxCell>
                <mxCell id="35" value="Label information" style="text;html=1;strokeColor=none;fillColor=none;align=center;verticalAlign=middle;whiteSpace=wrap;rounded=0;" parent="1" vertex="1">
                    <mxGeometry x="500" y="560" width="150" height="60" as="geometry"/>
                </mxCell>
                <mxCell id="36" value="" style="endArrow=classic;html=1;exitX=0;exitY=1;exitDx=0;exitDy=0;entryX=0.25;entryY=0;entryDx=0;entryDy=0;" parent="1" source="9" target="4" edge="1">
                    <mxGeometry width="50" height="50" relative="1" as="geometry">
                        <mxPoint x="340" y="430" as="sourcePoint"/>
                        <mxPoint x="390" y="380" as="targetPoint"/>
                    </mxGeometry>
                </mxCell>
                <mxCell id="37" value="Label updates" style="text;html=1;strokeColor=none;fillColor=none;align=center;verticalAlign=middle;whiteSpace=wrap;rounded=0;" parent="1" vertex="1">
                    <mxGeometry x="310" y="580" width="150" height="60" as="geometry"/>
                </mxCell>
                <mxCell id="40" value="" style="endArrow=classic;html=1;exitX=1;exitY=1;exitDx=0;exitDy=0;entryX=0.25;entryY=0;entryDx=0;entryDy=0;" parent="1" source="8" target="3" edge="1">
                    <mxGeometry width="50" height="50" relative="1" as="geometry">
                        <mxPoint x="340" y="480" as="sourcePoint"/>
                        <mxPoint x="390" y="430" as="targetPoint"/>
                    </mxGeometry>
                </mxCell>
                <mxCell id="41" value="" style="endArrow=classic;html=1;entryX=1;entryY=0.5;entryDx=0;entryDy=0;exitX=1;exitY=0;exitDx=0;exitDy=0;" parent="1" source="3" target="8" edge="1">
                    <mxGeometry width="50" height="50" relative="1" as="geometry">
                        <mxPoint x="340" y="480" as="sourcePoint"/>
                        <mxPoint x="390" y="430" as="targetPoint"/>
                    </mxGeometry>
                </mxCell>
                <mxCell id="42" value="Taks Updates" style="text;html=1;strokeColor=none;fillColor=none;align=center;verticalAlign=middle;whiteSpace=wrap;rounded=0;" parent="1" vertex="1">
                    <mxGeometry x="620" y="470" width="40" height="30" as="geometry"/>
                </mxCell>
                <mxCell id="43" value="Task infomration" style="text;html=1;strokeColor=none;fillColor=none;align=center;verticalAlign=middle;whiteSpace=wrap;rounded=0;" parent="1" vertex="1">
                    <mxGeometry x="730" y="380" width="40" height="30" as="geometry"/>
                </mxCell>
            </root>
        </mxGraphModel>
    </diagram>
</mxfile>